<svg width="220" height="240" viewBox="0 0 220 240" fill="none" xmlns="http://www.w3.org/2000/svg">
<path d="M220 110C220 170.751 170.751 220 110 220C49.2487 220 0 170.751 0 110C0 49.2487 49.2487 0 110 0C170.751 0 220 49.2487 220 110ZM17.6 110C17.6 161.031 58.9689 202.4 110 202.4C161.031 202.4 202.4 161.031 202.4 110C202.4 58.9689 161.031 17.6 110 17.6C58.9689 17.6 17.6 58.9689 17.6 110Z" fill="#FFE2E9"/>
<path d="M110 8.8C110 3.93989 113.946 -0.0365956 118.791 0.351801C127.767 1.07148 136.622 2.89082 145.155 5.76884C149.76 7.32208 151.819 12.5323 149.902 16.9987C147.986 21.4651 142.821 23.4889 138.193 22.006C131.886 19.9853 125.38 18.6485 118.787 18.0187C113.949 17.5566 110 13.6601 110 8.8Z" fill="url(#paint0_linear)"/>
<path d="M93.6671 70C93.4111 70 93.2084 69.9307 93.0591 69.792C92.9204 69.6427 92.8511 69.4453 92.8511 69.2V59.52C92.8511 59.2747 92.9204 59.0827 93.0591 58.944C93.2084 58.7947 93.4111 58.72 93.6671 58.72H96.8031C98.6271 58.72 100.04 59.2107 101.043 60.192C102.046 61.1733 102.547 62.56 102.547 64.352C102.547 66.144 102.046 67.536 101.043 68.528C100.04 69.5093 98.6271 70 96.8031 70H93.6671ZM96.7071 68.624C99.4804 68.624 100.867 67.2 100.867 64.352C100.867 61.5147 99.4804 60.096 96.7071 60.096H94.4991V68.624H96.7071ZM116.475 69.04C116.528 69.168 116.555 69.2747 116.555 69.36C116.555 69.5627 116.47 69.7333 116.299 69.872C116.139 70.0107 115.958 70.08 115.755 70.08C115.616 70.08 115.483 70.0427 115.355 69.968C115.238 69.8827 115.147 69.7653 115.083 69.616L114.027 67.216H108.171L107.115 69.616C107.051 69.7653 106.955 69.8827 106.827 69.968C106.699 70.0427 106.566 70.08 106.427 70.08C106.214 70.08 106.022 70.0107 105.851 69.872C105.691 69.7333 105.611 69.5627 105.611 69.36C105.611 69.2747 105.638 69.168 105.691 69.04L110.203 59.168C110.278 58.9973 110.395 58.864 110.555 58.768C110.726 58.672 110.902 58.624 111.083 58.624C111.264 58.624 111.435 58.672 111.595 58.768C111.766 58.864 111.888 58.9973 111.963 59.168L116.475 69.04ZM108.763 65.904H113.451L111.099 60.608L108.763 65.904ZM126.048 58.928C126.197 58.736 126.384 58.64 126.608 58.64C126.8 58.64 126.97 58.72 127.12 58.88C127.28 59.0293 127.36 59.2053 127.36 59.408C127.36 59.6 127.296 59.7653 127.168 59.904L123.392 64.608V69.248C123.392 69.5147 123.312 69.7227 123.152 69.872C123.002 70.0107 122.805 70.08 122.56 70.08C122.314 70.08 122.117 70.0107 121.968 69.872C121.818 69.7227 121.744 69.5147 121.744 69.248V64.608L117.968 59.904C117.84 59.7653 117.776 59.5947 117.776 59.392C117.776 59.1893 117.85 59.0133 118 58.864C118.149 58.7147 118.325 58.64 118.528 58.64C118.741 58.64 118.928 58.736 119.088 58.928L122.576 63.312L126.048 58.928ZM122.377 128.344C124.937 128.344 126.217 129.432 126.217 131.608C126.217 133.869 124.937 135 122.377 135H100.745C98.1418 135 96.8405 133.869 96.8405 131.608C96.8405 129.432 98.1418 128.344 100.745 128.344H107.401V99.16L101.257 102.936C100.659 103.277 100.126 103.448 99.6565 103.448C98.7605 103.448 97.9925 103.064 97.3525 102.296C96.7552 101.528 96.4565 100.675 96.4565 99.736C96.4565 98.4987 97.0112 97.5387 98.1205 96.856L108.041 90.712C109.321 89.944 110.537 89.56 111.689 89.56C112.883 89.56 113.843 89.9227 114.569 90.648C115.294 91.3733 115.657 92.376 115.657 93.656V128.344H122.377Z" fill="#FFE2E9"/>
<path d="M110 8.8C110 3.93989 113.946 -0.0365956 118.791 0.351786C133.898 1.56289 148.594 5.88366 161.953 13.0417C166.237 15.3372 167.403 20.8168 164.773 24.9035C162.142 28.9903 156.713 30.1294 152.394 27.8995C141.925 22.4934 130.516 19.1392 118.787 18.0187C113.949 17.5565 110 13.6601 110 8.8Z" fill="url(#paint1_linear)"/>
<defs>
<linearGradient id="paint0_linear" x1="0" y1="220" x2="10.7631" y2="-9.79996" gradientUnits="userSpaceOnUse">
<stop stop-color="#FF9FC2"/>
<stop offset="1" stop-color="#F77CA8"/>
</linearGradient>
<linearGradient id="paint1_linear" x1="0" y1="220" x2="10.7631" y2="-9.79996" gradientUnits="userSpaceOnUse">
<stop stop-color="#FF9FC2"/>
<stop offset="1" stop-color="#F77CA8"/>
</linearGradient>
</defs>
</svg>
